<?xml version="1.0" encoding="utf-8"?>
<!-- Generator: Adobe Illustrator 24.1.3, SVG Export Plug-In . SVG Version: 6.00 Build 0)  -->
<svg version="1.1" id="Layer_1" xmlns="http://www.w3.org/2000/svg" xmlns:xlink="http://www.w3.org/1999/xlink" x="0px" y="0px"
	 viewBox="0 0 812 484.28" style="enable-background:new 0 0 812 484.28;" xml:space="preserve">
   <title>koslogo</title>
<style type="text/css">
	.st0{fill:#2D2A26;}
</style>
<path class="st0" d="M28,140.03h37.8v197.22H28V140.03z M198.11,337.25l-94.51-98.61l94.51-98.61h56.69l-75.59,78.89h-0.3
	l-18.61,19.72l94.5,98.61H198.11z"/>
<path class="st0" d="M330.4,179.48c-10.63,0-19.59-3.8-26.87-11.41c-7.29-7.8-10.93-17.15-10.93-28.04h226.8
	c0,11.09-3.74,20.44-11.22,28.04c-7.48,7.61-16.36,11.41-26.59,11.41H330.4z M292.6,337.25V218.92h37.8v78.89h151.19v-78.89h37.81
	v118.33H292.6z"/>
<path class="st0" d="M557.2,337.25c0-10.89,3.63-20.12,10.93-27.73c7.48-7.81,16.43-11.72,26.87-11.72h151.19v-39.45H557.2V140.03
	H784c0,11.09-3.74,20.44-11.22,28.04c-7.49,7.61-16.36,11.41-26.59,11.41H595v39.44h189v118.33H557.2z"/>
<path class="st0" d="M243.28,204.93h11.53v57.66h-11.53V204.93z M237.49,262.59l-28.83-28.83l28.83-28.83h17.3l-23.06,23.06h-0.1
	l-5.67,5.77l28.83,28.83H237.49z"/>
<rect x="225.95" y="216.29" class="st0" width="20.13" height="34.54"/>
</svg>
